<svg width="24" height="23" viewBox="0 0 24 23" fill="none" xmlns="http://www.w3.org/2000/svg">
<path d="M3 8.75H10.5V14.25H3V8.75Z" fill="black"/>
<path d="M3 6C2.20435 6 1.44129 6.28973 0.87868 6.80546C0.316071 7.32118 0 8.02065 0 8.75L0 14.25C0 14.9793 0.316071 15.6788 0.87868 16.1945C1.44129 16.7103 2.20435 17 3 17H18C18.7956 17 19.5587 16.7103 20.1213 16.1945C20.6839 15.6788 21 14.9793 21 14.25V8.75C21 8.02065 20.6839 7.32118 20.1213 6.80546C19.5587 6.28973 18.7956 6 18 6H3ZM18 7.375C18.3978 7.375 18.7794 7.51987 19.0607 7.77773C19.342 8.03559 19.5 8.38533 19.5 8.75V14.25C19.5 14.6147 19.342 14.9644 19.0607 15.2223C18.7794 15.4801 18.3978 15.625 18 15.625H3C2.60218 15.625 2.22064 15.4801 1.93934 15.2223C1.65804 14.9644 1.5 14.6147 1.5 14.25V8.75C1.5 8.38533 1.65804 8.03559 1.93934 7.77773C2.22064 7.51987 2.60218 7.375 3 7.375H18ZM24 11.5C24 12.047 23.7629 12.5716 23.341 12.9584C22.919 13.3452 22.3467 13.5625 21.75 13.5625V9.4375C22.3467 9.4375 22.919 9.6548 23.341 10.0416C23.7629 10.4284 24 10.953 24 11.5Z" fill="black"/>
</svg>
