<svg width="14" height="15" viewBox="0 0 14 15" fill="none" xmlns="http://www.w3.org/2000/svg">
<g id="Icon/calender">
<path id="Vector" d="M1.1665 11.5833C1.1665 12.575 1.92484 13.3333 2.9165 13.3333H11.0832C12.0748 13.3333 12.8332 12.575 12.8332 11.5833V6.91666H1.1665V11.5833ZM11.0832 2.83332H9.9165V2.24999C9.9165 1.89999 9.68317 1.66666 9.33317 1.66666C8.98317 1.66666 8.74984 1.89999 8.74984 2.24999V2.83332H5.24984V2.24999C5.24984 1.89999 5.0165 1.66666 4.6665 1.66666C4.3165 1.66666 4.08317 1.89999 4.08317 2.24999V2.83332H2.9165C1.92484 2.83332 1.1665 3.59166 1.1665 4.58332V5.74999H12.8332V4.58332C12.8332 3.59166 12.0748 2.83332 11.0832 2.83332Z" fill="#B1B4C3"/>
</g>
</svg>
