<svg width="26" height="17" viewBox="0 0 26 17" fill="none" xmlns="http://www.w3.org/2000/svg">
<path d="M17.4688 4.78131V13.2813C17.4688 13.4927 17.3404 13.6953 17.1119 13.8448C16.8833 13.9942 16.5733 14.0782 16.2501 14.0782C15.9269 14.0782 15.6169 13.9942 15.3883 13.8448C15.1597 13.6953 15.0313 13.4927 15.0313 13.2813V4.78131C15.0313 4.56997 15.1597 4.36728 15.3883 4.21784C15.6169 4.06839 15.9269 3.98444 16.2501 3.98444C16.5733 3.98444 16.8833 4.06839 17.1119 4.21784C17.3404 4.36728 17.4688 4.56997 17.4688 4.78131ZM12.1876 6.64069C11.8644 6.64069 11.5544 6.72464 11.3258 6.87409C11.0972 7.02353 10.9688 7.22622 10.9688 7.43756V13.2813C10.9688 13.4927 11.0972 13.6953 11.3258 13.8448C11.5544 13.9942 11.8644 14.0782 12.1876 14.0782C12.5108 14.0782 12.8208 13.9942 13.0494 13.8448C13.2779 13.6953 13.4063 13.4927 13.4063 13.2813V7.43756C13.4063 7.22622 13.2779 7.02353 13.0494 6.87409C12.8208 6.72464 12.5108 6.64069 12.1876 6.64069ZM8.12508 9.29694C7.80185 9.29694 7.49186 9.38089 7.2633 9.53034C7.03474 9.67978 6.90633 9.88247 6.90633 10.0938V13.2813C6.90633 13.4927 7.03474 13.6953 7.2633 13.8448C7.49186 13.9942 7.80185 14.0782 8.12508 14.0782C8.44832 14.0782 8.75831 13.9942 8.98687 13.8448C9.21543 13.6953 9.34383 13.4927 9.34383 13.2813V10.0938C9.34383 9.88247 9.21543 9.67978 8.98687 9.53034C8.75831 9.38089 8.44832 9.29694 8.12508 9.29694ZM4.06258 11.9532C3.73935 11.9532 3.42936 12.0371 3.2008 12.1866C2.97224 12.336 2.84383 12.5387 2.84383 12.7501V13.2813C2.84383 13.4927 2.97224 13.6953 3.2008 13.8448C3.42936 13.9942 3.73935 14.0782 4.06258 14.0782C4.38582 14.0782 4.69581 13.9942 4.92437 13.8448C5.15293 13.6953 5.28133 13.4927 5.28133 13.2813V12.7501C5.28133 12.5387 5.15293 12.336 4.92437 12.1866C4.69581 12.0371 4.38582 11.9532 4.06258 11.9532Z" fill="black"/>
</svg>
