<svg width="21" height="20" viewBox="0 0 21 20" fill="none" xmlns="http://www.w3.org/2000/svg">
<g id="Icon/chat">
<path id="Vector" d="M18.4424 14.6195C18.8869 13.7386 19.1108 12.763 19.0949 11.7764C19.079 10.7898 18.8238 9.8219 18.3512 8.95576C17.8785 8.08962 17.2027 7.35119 16.3817 6.80395C15.5606 6.25671 14.619 5.91702 13.6377 5.81407C13.3262 5.05567 12.8648 4.36793 12.2812 3.79204C11.6976 3.21614 11.0039 2.76394 10.2414 2.4625C9.47892 2.16106 8.66346 2.01659 7.84384 2.03773C7.02422 2.05887 6.2173 2.2452 5.47139 2.58554C4.72547 2.92589 4.05591 3.41326 3.5028 4.01848C2.94968 4.62369 2.52438 5.3343 2.25237 6.10775C1.98036 6.88121 1.86722 7.7016 1.91974 8.51981C1.97226 9.33801 2.18936 10.1372 2.55802 10.8695L1.94318 13.0234C1.89737 13.1841 1.89534 13.3542 1.93731 13.5159C1.97927 13.6776 2.0637 13.8252 2.18185 13.9434C2.3 14.0615 2.44759 14.146 2.60933 14.1879C2.77107 14.2299 2.94108 14.2278 3.10177 14.182L5.25568 13.5672C5.9143 13.8981 6.62733 14.1072 7.36037 14.1844C7.67922 14.962 8.1554 15.6654 8.75901 16.2502C9.36261 16.8351 10.0806 17.2889 10.8679 17.5831C11.6552 17.8772 12.4949 18.0055 13.3341 17.9597C14.1734 17.914 14.9941 17.6952 15.7447 17.3172L17.8986 17.932C18.0593 17.9778 18.2294 17.9799 18.3911 17.9379C18.5528 17.896 18.7004 17.8115 18.8186 17.6934C18.9367 17.5752 19.0212 17.4276 19.0631 17.2659C19.1051 17.1042 19.1031 16.9341 19.0572 16.7734L18.4424 14.6195ZM5.30724 12.5961C5.26363 12.5959 5.22022 12.6019 5.17834 12.6141L2.84396 13.2813L3.51037 10.9477C3.5444 10.8291 3.53037 10.702 3.4713 10.5938C2.87862 9.50466 2.69824 8.23846 2.96322 7.02718C3.22819 5.8159 3.92077 4.74066 4.91405 3.9985C5.90733 3.25634 7.13478 2.89696 8.37149 2.9862C9.6082 3.07545 10.7713 3.60735 11.6478 4.48444C12.5242 5.36153 13.0552 6.52507 13.1435 7.76184C13.2318 8.99861 12.8715 10.2258 12.1286 11.2185C11.3857 12.2112 10.3099 12.903 9.09843 13.167C7.88695 13.4311 6.62089 13.2498 5.53224 12.6563C5.46337 12.6179 5.38606 12.5972 5.30724 12.5961ZM17.4893 14.6969L18.1565 17.0313L15.8229 16.3649C15.7044 16.3308 15.5772 16.3449 15.469 16.4039C14.8628 16.7344 14.1963 16.9397 13.5093 17.0078C12.8222 17.0759 12.1285 17.0052 11.4692 16.8001C10.8099 16.595 10.1986 16.2596 9.6714 15.8138C9.14422 15.3679 8.71194 14.8207 8.40021 14.2047C9.27672 14.1477 10.1305 13.9016 10.9029 13.4835C11.6754 13.0653 12.3482 12.4849 12.8752 11.7822C13.4021 11.0795 13.7708 10.271 13.9558 9.41239C14.1408 8.55374 14.1379 7.66521 13.9471 6.80782C14.7472 6.95681 15.5007 7.2931 16.146 7.78918C16.7912 8.28526 17.3098 8.92703 17.6594 9.662C18.0091 10.397 18.1797 11.2043 18.1575 12.0179C18.1352 12.8314 17.9207 13.6282 17.5315 14.343C17.4713 14.4508 17.4562 14.578 17.4893 14.6969Z" fill="black"/>
</g>
</svg>
