<svg width="18" height="18" viewBox="0 0 18 18" fill="none" xmlns="http://www.w3.org/2000/svg">
<g id="Icon/direction">
<path id="Vector" d="M11.6479 14.227C11.7002 14.2793 11.7416 14.3413 11.7699 14.4096C11.7982 14.4779 11.8128 14.5511 11.8128 14.625C11.8128 14.6989 11.7982 14.7721 11.7699 14.8404C11.7416 14.9087 11.7002 14.9707 11.6479 15.023C11.5957 15.0752 11.5336 15.1167 11.4653 15.145C11.397 15.1733 11.3239 15.1878 11.25 15.1878C11.176 15.1878 11.1029 15.1733 11.0346 15.145C10.9663 15.1167 10.9042 15.0752 10.852 15.023L5.22699 9.39798C5.17469 9.34574 5.1332 9.2837 5.10489 9.21541C5.07658 9.14713 5.06201 9.07393 5.06201 9.00001C5.06201 8.92609 5.07658 8.85289 5.10489 8.7846C5.1332 8.71632 5.17469 8.65428 5.22699 8.60204L10.852 2.97704C10.9575 2.87149 11.1007 2.81219 11.25 2.81219C11.3992 2.81219 11.5424 2.87149 11.6479 2.97704C11.7535 3.08259 11.8128 3.22574 11.8128 3.37501C11.8128 3.52427 11.7535 3.66743 11.6479 3.77298L6.42019 9.00001L11.6479 14.227Z" fill="black"/>
</g>
</svg>
