<svg width="14" height="15" viewBox="0 0 14 15" fill="none" xmlns="http://www.w3.org/2000/svg">
<g id="Icon/fullpeople">
<path id="Vector" d="M9.33317 10.4167V11.5833H1.1665V10.4167C1.1665 10.4167 1.1665 8.08334 5.24984 8.08334C9.33317 8.08334 9.33317 10.4167 9.33317 10.4167ZM7.2915 4.87501C7.2915 4.47121 7.17176 4.07647 6.94742 3.74072C6.72308 3.40497 6.40421 3.14329 6.03115 2.98876C5.65808 2.83423 5.24757 2.7938 4.85153 2.87257C4.45548 2.95135 4.09169 3.1458 3.80616 3.43133C3.52063 3.71687 3.32618 4.08066 3.2474 4.4767C3.16862 4.87275 3.20905 5.28326 3.36358 5.65632C3.51811 6.02939 3.7798 6.34825 4.11555 6.57259C4.4513 6.79694 4.84603 6.91668 5.24984 6.91668C5.79132 6.91668 6.31063 6.70157 6.69351 6.31869C7.0764 5.9358 7.2915 5.41649 7.2915 4.87501ZM9.29817 8.08334C9.65677 8.36086 9.9502 8.7136 10.1578 9.11672C10.3654 9.51985 10.4822 9.96357 10.4998 10.4167V11.5833H12.8332V10.4167C12.8332 10.4167 12.8332 8.29918 9.29817 8.08334ZM8.74984 2.83334C8.34832 2.83111 7.95564 2.95115 7.624 3.17751C7.97834 3.67261 8.16887 4.26618 8.16887 4.87501C8.16887 5.48384 7.97834 6.07741 7.624 6.57251C7.95564 6.79887 8.34832 6.91891 8.74984 6.91668C9.29132 6.91668 9.81063 6.70157 10.1935 6.31869C10.5764 5.9358 10.7915 5.41649 10.7915 4.87501C10.7915 4.33353 10.5764 3.81422 10.1935 3.43133C9.81063 3.04845 9.29132 2.83334 8.74984 2.83334Z" fill="#B1B4C3"/>
</g>
</svg>
