<svg width="20" height="20" viewBox="0 0 20 20" fill="none" xmlns="http://www.w3.org/2000/svg">
<path d="M2.36104 15.202C2.36104 15.2047 2.36104 15.2098 2.35791 15.2168C2.35908 15.2121 2.35986 15.207 2.36104 15.202ZM17.1837 15.8438C17.0551 15.841 16.9281 15.8145 16.8091 15.7656L14.5911 14.9793L14.5747 14.9727C14.5263 14.9525 14.4744 14.9424 14.422 14.943C14.3737 14.943 14.3258 14.9518 14.2806 14.9688C14.2267 14.9891 13.7411 15.1715 13.2317 15.3113C12.9556 15.3871 11.9942 15.6344 11.2228 15.6344C9.25088 15.6344 7.40713 14.8766 6.03174 13.5004C5.35983 12.8326 4.82705 12.0382 4.46423 11.1631C4.10142 10.288 3.91578 9.34966 3.91807 8.40235C3.91805 7.90875 3.97122 7.41658 4.07666 6.93438C4.42002 5.34766 5.32939 3.9043 6.63721 2.87188C7.97875 1.81955 9.63491 1.24837 11.3399 1.25C13.3794 1.25 15.2798 2.03125 16.6915 3.44453C18.0259 4.78321 18.7571 6.54336 18.7513 8.40039C18.7501 9.7803 18.3381 11.1286 17.5677 12.2734L17.5603 12.2844L17.5313 12.3234C17.5247 12.3324 17.5181 12.341 17.5118 12.35L17.506 12.3605C17.4904 12.387 17.4763 12.4142 17.4638 12.4422L18.0786 14.6273C18.1058 14.7175 18.1205 14.8109 18.1224 14.9051C18.1225 15.0284 18.0983 15.1505 18.0512 15.2645C18.0041 15.3784 17.935 15.482 17.8478 15.5692C17.7606 15.6564 17.657 15.7255 17.5431 15.7726C17.4291 15.8197 17.307 15.8439 17.1837 15.8438Z" fill="black"/>
<path d="M11.7137 16.6167C11.6733 16.5382 11.6165 16.4693 11.5472 16.4147C11.4778 16.3601 11.3975 16.3211 11.3117 16.3003C11.086 16.2405 10.8227 16.2507 10.6215 16.2358C8.72203 16.1038 6.93456 15.2886 5.58947 13.9409C4.39367 12.7518 3.61652 11.2064 3.37502 9.53738C3.32033 9.15691 3.32033 9.06238 3.32033 9.06238C3.32031 8.93544 3.28163 8.81152 3.20945 8.7071C3.13726 8.60268 3.03499 8.52271 2.91625 8.47785C2.7975 8.43298 2.66791 8.42533 2.54471 8.45592C2.42151 8.48651 2.31055 8.5539 2.22658 8.6491C2.22658 8.6491 1.91877 8.98426 1.77346 9.32059C1.36591 10.2596 1.19211 11.2834 1.26694 12.3043C1.34178 13.3252 1.66302 14.3128 2.20314 15.1823C2.30471 15.3514 2.30471 15.4296 2.28205 15.6054C2.17541 16.1565 1.98869 17.1288 1.89143 17.6331C1.85922 17.7966 1.8712 17.9658 1.92613 18.1232C1.98106 18.2805 2.07695 18.4204 2.20393 18.5284L2.22189 18.5436C2.38987 18.677 2.59802 18.7497 2.81252 18.7499C2.93317 18.75 3.05265 18.7262 3.16408 18.68L5.25432 17.8733C5.32628 17.846 5.40579 17.846 5.47775 17.8733C6.3008 18.1796 7.15744 18.3421 7.96916 18.3421C8.98054 18.343 9.97968 18.1208 10.8953 17.6913C11.1086 17.5913 11.4422 17.4827 11.6375 17.2569C11.7114 17.1693 11.758 17.062 11.7716 16.9482C11.7851 16.8344 11.765 16.7192 11.7137 16.6167Z" fill="black"/>
</svg>
