<svg width="20" height="20" viewBox="0 0 20 20" fill="none" xmlns="http://www.w3.org/2000/svg">
<g id="Icon/home">
<path id="Vector" d="M9.19167 2.15834C9.41757 1.96704 9.70399 1.86206 10 1.86206C10.296 1.86206 10.5824 1.96704 10.8083 2.15834L17.0583 7.46084C17.1967 7.57817 17.3079 7.72422 17.3842 7.88884C17.4605 8.05347 17.5 8.23273 17.5 8.41417V16.25C17.5 16.5815 17.3683 16.8995 17.1339 17.1339C16.8995 17.3683 16.5815 17.5 16.25 17.5H11.4583C11.2926 17.5 11.1336 17.4342 11.0164 17.3169C10.8992 17.1997 10.8333 17.0408 10.8333 16.875V11.6667H9.16667V16.875C9.16667 17.0408 9.10082 17.1997 8.98361 17.3169C8.8664 17.4342 8.70743 17.5 8.54167 17.5H3.75C3.41848 17.5 3.10054 17.3683 2.86612 17.1339C2.6317 16.8995 2.5 16.5815 2.5 16.25V8.41417C2.5 8.0475 2.66167 7.69834 2.94167 7.46084L9.19167 2.15834ZM10 3.11167L3.75 8.41417V16.25H7.91667V11.0417C7.91667 10.8759 7.98251 10.7169 8.09973 10.5997C8.21694 10.4825 8.37591 10.4167 8.54167 10.4167H11.4583C11.6241 10.4167 11.7831 10.4825 11.9003 10.5997C12.0175 10.7169 12.0833 10.8759 12.0833 11.0417V16.25H16.25V8.41417L10 3.11167Z" fill="black"/>
</g>
</svg>
