<svg width="20" height="20" viewBox="0 0 20 20" fill="none" xmlns="http://www.w3.org/2000/svg">
<g id="Icon/map">
<path id="Vector" d="M15.625 17.6562H11.3453C12.1065 17.0039 12.8196 16.2973 13.4789 15.5422C15.5984 13.1047 16.7188 10.5422 16.7188 8.125C16.7188 6.34308 16.0109 4.63414 14.7509 3.37413C13.4909 2.11412 11.7819 1.40625 10 1.40625C8.21808 1.40625 6.50914 2.11412 5.24913 3.37413C3.98912 4.63414 3.28125 6.34308 3.28125 8.125C3.28125 10.5398 4.40156 13.1047 6.52109 15.5422C7.18044 16.2973 7.8935 17.0039 8.65469 17.6562H4.375C4.25068 17.6562 4.13145 17.7056 4.04354 17.7935C3.95564 17.8815 3.90625 18.0007 3.90625 18.125C3.90625 18.2493 3.95564 18.3685 4.04354 18.4565C4.13145 18.5444 4.25068 18.5938 4.375 18.5938H15.625C15.7493 18.5938 15.8685 18.5444 15.9565 18.4565C16.0444 18.3685 16.0938 18.2493 16.0938 18.125C16.0938 18.0007 16.0444 17.8815 15.9565 17.7935C15.8685 17.7056 15.7493 17.6562 15.625 17.6562ZM4.21875 8.125C4.21875 6.59172 4.82784 5.12123 5.91204 4.03704C6.99623 2.95284 8.46672 2.34375 10 2.34375C11.5333 2.34375 13.0038 2.95284 14.088 4.03704C15.1722 5.12123 15.7812 6.59172 15.7812 8.125C15.7812 12.7828 11.1719 16.6352 10 17.5398C8.82812 16.6352 4.21875 12.7828 4.21875 8.125ZM12.9688 8.125C12.9688 7.53784 12.7946 6.96386 12.4684 6.47565C12.1422 5.98744 11.6786 5.60693 11.1361 5.38223C10.5936 5.15754 9.99671 5.09874 9.42083 5.21329C8.84494 5.32784 8.31596 5.61059 7.90078 6.02578C7.48559 6.44096 7.20284 6.96994 7.08829 7.54583C6.97374 8.12171 7.03254 8.71862 7.25723 9.26109C7.48193 9.80356 7.86244 10.2672 8.35065 10.5934C8.83886 10.9196 9.41284 11.0938 10 11.0938C10.7874 11.0938 11.5425 10.781 12.0992 10.2242C12.656 9.66747 12.9688 8.91236 12.9688 8.125ZM7.96875 8.125C7.96875 7.72326 8.08788 7.33054 8.31108 6.9965C8.53427 6.66246 8.85151 6.40211 9.22267 6.24837C9.59384 6.09463 10.0023 6.0544 10.3963 6.13278C10.7903 6.21116 11.1522 6.40461 11.4363 6.68869C11.7204 6.97276 11.9138 7.3347 11.9922 7.72872C12.0706 8.12275 12.0304 8.53116 11.8766 8.90233C11.7229 9.27349 11.4625 9.59073 11.1285 9.81392C10.7945 10.0371 10.4017 10.1562 10 10.1562C9.46128 10.1562 8.94462 9.94224 8.56369 9.56131C8.18276 9.18038 7.96875 8.66372 7.96875 8.125Z" fill="black"/>
</g>
</svg>
