<svg width="20" height="20" viewBox="0 0 20 20" fill="none" xmlns="http://www.w3.org/2000/svg">
<g id="Icon/my">
<path id="Vector" d="M10 2C8.93913 2 7.92172 2.42143 7.17157 3.17157C6.42143 3.92172 6 4.93913 6 6C6 7.06087 6.42143 8.07828 7.17157 8.82843C7.92172 9.57857 8.93913 10 10 10C11.0609 10 12.0783 9.57857 12.8284 8.82843C13.5786 8.07828 14 7.06087 14 6C14 4.93913 13.5786 3.92172 12.8284 3.17157C12.0783 2.42143 11.0609 2 10 2ZM7 6C7 5.20435 7.31607 4.44129 7.87868 3.87868C8.44129 3.31607 9.20435 3 10 3C10.7956 3 11.5587 3.31607 12.1213 3.87868C12.6839 4.44129 13 5.20435 13 6C13 6.79565 12.6839 7.55871 12.1213 8.12132C11.5587 8.68393 10.7956 9 10 9C9.20435 9 8.44129 8.68393 7.87868 8.12132C7.31607 7.55871 7 6.79565 7 6ZM5.009 11C4.74564 10.9989 4.48466 11.0499 4.24102 11.1499C3.99739 11.2499 3.7759 11.3971 3.58926 11.5829C3.40261 11.7687 3.25448 11.9895 3.15337 12.2327C3.05225 12.4759 3.00013 12.7366 3 13C3 14.691 3.833 15.966 5.135 16.797C6.417 17.614 8.145 18 10 18C11.855 18 13.583 17.614 14.865 16.797C16.167 15.967 17 14.69 17 13C17 12.4696 16.7893 11.9609 16.4142 11.5858C16.0391 11.2107 15.5304 11 15 11H5.009ZM4 13C4 12.447 4.448 12 5.009 12H15C15.2652 12 15.5196 12.1054 15.7071 12.2929C15.8946 12.4804 16 12.7348 16 13C16 14.309 15.378 15.284 14.327 15.953C13.257 16.636 11.735 17 10 17C8.265 17 6.743 16.636 5.673 15.953C4.623 15.283 4 14.31 4 13Z" fill="black"/>
</g>
</svg>
