<svg width="12" height="12" viewBox="0 0 12 12" fill="none" xmlns="http://www.w3.org/2000/svg">
<path id="Vector" d="M1.66863 0.608239C1.52718 0.47162 1.33773 0.396025 1.14108 0.397733C0.944435 0.399442 0.756326 0.478319 0.61727 0.617375C0.478214 0.756431 0.399337 0.944541 0.397628 1.14119C0.39592 1.33784 0.471515 1.52729 0.608134 1.66874L4.93938 5.99999L0.607384 10.3312C0.535751 10.4004 0.478615 10.4832 0.439308 10.5747C0.400001 10.6662 0.379312 10.7646 0.378446 10.8642C0.377581 10.9638 0.396557 11.0625 0.434268 11.1547C0.471978 11.2469 0.527668 11.3306 0.598088 11.401C0.668507 11.4715 0.752246 11.5271 0.844419 11.5649C0.936591 11.6026 1.03535 11.6215 1.13493 11.6207C1.23452 11.6198 1.33293 11.5991 1.42444 11.5598C1.51594 11.5205 1.5987 11.4634 1.66788 11.3917L5.99988 7.06049L10.3311 11.3917C10.4726 11.5284 10.662 11.604 10.8587 11.6022C11.0553 11.6005 11.2434 11.5217 11.3825 11.3826C11.5216 11.2435 11.6004 11.0554 11.6021 10.8588C11.6038 10.6621 11.5283 10.4727 11.3916 10.3312L7.06038 5.99999L11.3916 1.66874C11.5283 1.52729 11.6038 1.33784 11.6021 1.14119C11.6004 0.944541 11.5216 0.756431 11.3825 0.617375C11.2434 0.478319 11.0553 0.399442 10.8587 0.397733C10.662 0.396025 10.4726 0.47162 10.3311 0.608239L5.99988 4.93949L1.66863 0.608239Z" fill="white"/>
</svg>
