<svg width="22" height="22" viewBox="0 0 22 22" fill="none" xmlns="http://www.w3.org/2000/svg">
<g id="Icon/close">
<path id="Vector" d="M5.70633 4.41003C5.53344 4.24305 5.30189 4.15066 5.06154 4.15274C4.82119 4.15483 4.59128 4.25124 4.42133 4.4212C4.25137 4.59115 4.15496 4.82106 4.15287 5.06141C4.15079 5.30176 4.24318 5.53331 4.41016 5.7062L9.70391 10.9999L4.40924 16.2937C4.32169 16.3783 4.25186 16.4794 4.20382 16.5912C4.15577 16.7031 4.13049 16.8234 4.12943 16.9451C4.12837 17.0668 4.15156 17.1875 4.19766 17.3002C4.24375 17.4128 4.31181 17.5152 4.39788 17.6012C4.48395 17.6873 4.5863 17.7554 4.69895 17.8014C4.81161 17.8475 4.93231 17.8707 5.05403 17.8697C5.17574 17.8686 5.29603 17.8433 5.40786 17.7953C5.5197 17.7472 5.62085 17.6774 5.70541 17.5899L11.0001 12.2961L16.2938 17.5899C16.4667 17.7568 16.6983 17.8492 16.9386 17.8471C17.179 17.8451 17.4089 17.7487 17.5788 17.5787C17.7488 17.4087 17.8452 17.1788 17.8473 16.9385C17.8494 16.6981 17.757 16.4666 17.59 16.2937L12.2962 10.9999L17.59 5.7062C17.757 5.53331 17.8494 5.30176 17.8473 5.06141C17.8452 4.82106 17.7488 4.59115 17.5788 4.4212C17.4089 4.25124 17.179 4.15483 16.9386 4.15274C16.6983 4.15066 16.4667 4.24305 16.2938 4.41003L11.0001 9.70378L5.70633 4.41003Z" fill="black"/>
</g>
</svg>
