<svg width="14" height="14" viewBox="0 0 14 14" fill="none" xmlns="http://www.w3.org/2000/svg">
<g id="Icon/calender">
<path id="Vector" d="M1.1665 11.0833C1.1665 12.075 1.92484 12.8333 2.9165 12.8333H11.0832C12.0748 12.8333 12.8332 12.075 12.8332 11.0833V6.41666H1.1665V11.0833ZM11.0832 2.33332H9.9165V1.74999C9.9165 1.39999 9.68317 1.16666 9.33317 1.16666C8.98317 1.16666 8.74984 1.39999 8.74984 1.74999V2.33332H5.24984V1.74999C5.24984 1.39999 5.0165 1.16666 4.6665 1.16666C4.3165 1.16666 4.08317 1.39999 4.08317 1.74999V2.33332H2.9165C1.92484 2.33332 1.1665 3.09166 1.1665 4.08332V5.24999H12.8332V4.08332C12.8332 3.09166 12.0748 2.33332 11.0832 2.33332Z" fill="black"/>
</g>
</svg>
