<svg width="20" height="20" viewBox="0 0 20 20" fill="none" xmlns="http://www.w3.org/2000/svg">
<g id="Icon/sex">
<path id="Vector" d="M16.25 1.875H13.125C12.9592 1.875 12.8002 1.94085 12.683 2.05806C12.5658 2.17527 12.5 2.33424 12.5 2.5C12.5 2.66576 12.5658 2.82473 12.683 2.94194C12.8002 3.05915 12.9592 3.125 13.125 3.125H14.7414L12.7765 5.08984C12.1996 4.55218 11.5037 4.15861 10.7456 3.94128C9.98747 3.72396 9.18872 3.68903 8.41455 3.83936C7.64038 3.9897 6.91275 4.32102 6.29109 4.80628C5.66943 5.29154 5.17137 5.91696 4.83759 6.63148C4.50381 7.34599 4.34378 8.12932 4.37056 8.9175C4.39735 9.70567 4.61019 10.4763 4.9917 11.1665C5.37322 11.8567 5.91259 12.4469 6.56576 12.8888C7.21893 13.3308 7.96737 13.6119 8.74996 13.7094V15H6.87496C6.7092 15 6.55023 15.0658 6.43302 15.1831C6.31581 15.3003 6.24996 15.4592 6.24996 15.625C6.24996 15.7908 6.31581 15.9497 6.43302 16.0669C6.55023 16.1842 6.7092 16.25 6.87496 16.25H8.74996V18.125C8.74996 18.2908 8.81581 18.4497 8.93302 18.5669C9.05023 18.6842 9.2092 18.75 9.37496 18.75C9.54072 18.75 9.69969 18.6842 9.8169 18.5669C9.93411 18.4497 9.99996 18.2908 9.99996 18.125V16.25H11.875C12.0407 16.25 12.1997 16.1842 12.3169 16.0669C12.4341 15.9497 12.5 15.7908 12.5 15.625C12.5 15.4592 12.4341 15.3003 12.3169 15.1831C12.1997 15.0658 12.0407 15 11.875 15H9.99996V13.7094C10.8377 13.6047 11.6353 13.2894 12.3181 12.7928C13.0009 12.2963 13.5466 11.6347 13.9043 10.87C14.262 10.1052 14.42 9.26228 14.3635 8.4199C14.307 7.57753 14.0379 6.76324 13.5812 6.05313L15.625 4.00859V5.625C15.625 5.79076 15.6908 5.94973 15.808 6.06694C15.9252 6.18415 16.0842 6.25 16.25 6.25C16.4157 6.25 16.5747 6.18415 16.6919 6.06694C16.8091 5.94973 16.875 5.79076 16.875 5.625V2.5C16.875 2.33424 16.8091 2.17527 16.6919 2.05806C16.5747 1.94085 16.4157 1.875 16.25 1.875ZM9.37496 12.5C8.63328 12.5 7.90826 12.2801 7.29157 11.868C6.67489 11.456 6.19424 10.8703 5.91041 10.1851C5.62658 9.49984 5.55232 8.74584 5.69702 8.01841C5.84171 7.29098 6.19886 6.6228 6.72331 6.09835C7.24776 5.5739 7.91594 5.21675 8.64337 5.07206C9.3708 4.92736 10.1248 5.00162 10.81 5.28545C11.4952 5.56928 12.0809 6.04993 12.493 6.66661C12.905 7.2833 13.125 8.00832 13.125 8.75C13.1239 9.74424 12.7285 10.6975 12.0255 11.4005C11.3224 12.1035 10.3692 12.499 9.37496 12.5Z" fill="black"/>
</g>
</svg>
