<svg width="14" height="14" viewBox="0 0 14 14" fill="none" xmlns="http://www.w3.org/2000/svg">
<g id="Icon/people">
<path id="Vector" d="M2.04179 4.66668C2.0419 4.11363 2.18498 3.57 2.45713 3.08855C2.72928 2.60709 3.12127 2.20417 3.59505 1.91887C4.06883 1.63357 4.60832 1.47558 5.16115 1.46025C5.71399 1.44491 6.26141 1.57275 6.75027 1.83134C7.23914 2.08994 7.65286 2.47051 7.95129 2.93614C8.24971 3.40176 8.42271 3.93662 8.45348 4.48882C8.48426 5.04101 8.37177 5.59178 8.12693 6.08769C7.8821 6.58359 7.51323 7.00778 7.05612 7.3191C8.0405 7.68014 8.8943 8.32751 9.50766 9.17789C10.121 10.0283 10.4659 11.0427 10.4978 12.0908C10.4964 12.2038 10.4515 12.3119 10.3723 12.3925C10.2931 12.4731 10.1858 12.52 10.0729 12.5234C9.95992 12.5268 9.85003 12.4864 9.76616 12.4107C9.68228 12.3349 9.63092 12.2297 9.62279 12.117C9.58805 10.9804 9.1121 9.9019 8.2958 9.11017C7.47951 8.31844 6.38701 7.87566 5.24983 7.87566C4.11265 7.87566 3.02015 8.31844 2.20385 9.11017C1.38756 9.9019 0.911608 10.9804 0.876871 12.117C0.87103 12.2312 0.820682 12.3387 0.736614 12.4162C0.652545 12.4938 0.541441 12.5353 0.427105 12.532C0.312769 12.5286 0.204294 12.4806 0.12492 12.3983C0.0455451 12.3159 0.00158396 12.2057 0.00245408 12.0913C0.0342757 11.0432 0.379058 10.0286 0.992421 9.17813C1.60578 8.32764 2.45965 7.68018 3.44412 7.3191C3.01177 7.02488 2.65796 6.62938 2.41353 6.16705C2.1691 5.70473 2.04148 5.18964 2.04179 4.66668ZM5.25012 2.33335C4.63128 2.33335 4.03779 2.57918 3.6002 3.01676C3.16262 3.45435 2.91679 4.04784 2.91679 4.66668C2.91679 5.28552 3.16262 5.87901 3.6002 6.3166C4.03779 6.75418 4.63128 7.00001 5.25012 7.00001C5.86896 7.00001 6.46245 6.75418 6.90004 6.3166C7.33762 5.87901 7.58345 5.28552 7.58345 4.66668C7.58345 4.04784 7.33762 3.45435 6.90004 3.01676C6.46245 2.57918 5.86896 2.33335 5.25012 2.33335ZM10.086 4.66668C9.99962 4.66668 9.91562 4.67251 9.83279 4.68418C9.77495 4.69453 9.71563 4.69314 9.65835 4.68007C9.60107 4.667 9.54701 4.64252 9.49939 4.6081C9.45177 4.57369 9.41158 4.53003 9.3812 4.47974C9.35082 4.42946 9.33088 4.37356 9.32257 4.3154C9.31426 4.25724 9.31775 4.198 9.33284 4.14122C9.34792 4.08443 9.37428 4.03127 9.41036 3.98489C9.44643 3.93852 9.49148 3.89989 9.54281 3.8713C9.59414 3.84272 9.6507 3.82476 9.70912 3.81851C10.2893 3.73463 10.8809 3.84604 11.3908 4.13522C11.9007 4.42439 12.3 4.87491 12.5258 5.41587C12.7516 5.95683 12.7912 6.55752 12.6382 7.12341C12.4852 7.6893 12.1484 8.18826 11.6808 8.54176C12.3682 8.84955 12.9518 9.34968 13.3613 9.9818C13.7708 10.6139 13.9886 11.351 13.9885 12.1042C13.9885 12.2202 13.9424 12.3315 13.8603 12.4135C13.7783 12.4956 13.667 12.5417 13.551 12.5417C13.4349 12.5417 13.3236 12.4956 13.2416 12.4135C13.1595 12.3315 13.1135 12.2202 13.1135 12.1042C13.1134 11.4533 12.9037 10.8197 12.5153 10.2973C12.127 9.7749 11.5807 9.39149 10.9575 9.20385L10.646 9.11051V8.13285L10.8851 8.01093C11.2396 7.83135 11.5233 7.53753 11.6903 7.1769C11.8573 6.81628 11.8979 6.4099 11.8055 6.02337C11.7132 5.63684 11.4932 5.29272 11.1812 5.04656C10.8692 4.8004 10.4834 4.66657 10.086 4.66668Z" fill="black"/>
</g>
</svg>
