<svg width="16" height="17" viewBox="0 0 16 17" fill="none" xmlns="http://www.w3.org/2000/svg">
<g id="Icon/direction">
<path id="Vector" d="M11.3538 8.85378L6.35378 13.8538C6.30733 13.9002 6.25218 13.9371 6.19148 13.9622C6.13079 13.9874 6.06573 14.0003 6.00003 14.0003C5.93434 14.0003 5.86928 13.9874 5.80859 13.9622C5.74789 13.9371 5.69274 13.9002 5.64628 13.8538C5.59983 13.8073 5.56298 13.7522 5.53784 13.6915C5.5127 13.6308 5.49976 13.5657 5.49976 13.5C5.49976 13.4343 5.5127 13.3693 5.53784 13.3086C5.56298 13.2479 5.59983 13.1927 5.64628 13.1463L10.2932 8.50003L5.64628 3.85378C5.55246 3.75996 5.49976 3.63272 5.49976 3.50003C5.49976 3.36735 5.55246 3.2401 5.64628 3.14628C5.7401 3.05246 5.86735 2.99976 6.00003 2.99976C6.13272 2.99976 6.25996 3.05246 6.35378 3.14628L11.3538 8.14628C11.4003 8.19272 11.4372 8.24786 11.4623 8.30856C11.4875 8.36926 11.5004 8.43433 11.5004 8.50003C11.5004 8.56574 11.4875 8.6308 11.4623 8.6915C11.4372 8.7522 11.4003 8.80735 11.3538 8.85378Z" fill="black"/>
</g>
</svg>
