<svg width="18" height="18" viewBox="0 0 18 18" fill="none" xmlns="http://www.w3.org/2000/svg">
<path d="M9 14.25C9.68944 14.25 10.3721 14.1142 11.0091 13.8504C11.646 13.5865 12.2248 13.1998 12.7123 12.7123C13.1998 12.2248 13.5865 11.646 13.8504 11.0091C14.1142 10.3721 14.25 9.68944 14.25 9M9 14.25C7.60761 14.25 6.27226 13.6969 5.28769 12.7123C4.30312 11.7277 3.75 10.3924 3.75 9M9 14.25V15.75M14.25 9C14.25 8.31056 14.1142 7.62787 13.8504 6.99091C13.5865 6.35395 13.1998 5.7752 12.7123 5.28769C12.2248 4.80018 11.646 4.41347 11.0091 4.14963C10.3721 3.8858 9.68944 3.75 9 3.75M14.25 9H15.75M9 3.75C7.60761 3.75 6.27226 4.30312 5.28769 5.28769C4.30312 6.27226 3.75 7.60761 3.75 9M9 3.75V2.25M3.75 9H2.25" stroke="white" stroke-width="0.875" stroke-linecap="round" stroke-linejoin="round"/>
</svg>
