<svg width="20" height="20" viewBox="0 0 20 20" fill="none" xmlns="http://www.w3.org/2000/svg">
<path d="M10 15.8333C10.766 15.8333 11.5246 15.6824 12.2323 15.3893C12.9401 15.0961 13.5831 14.6665 14.1248 14.1248C14.6665 13.5831 15.0961 12.9401 15.3893 12.2323C15.6824 11.5246 15.8333 10.766 15.8333 10M10 15.8333C8.4529 15.8333 6.96917 15.2188 5.87521 14.1248C4.78125 13.0308 4.16667 11.5471 4.16667 10M10 15.8333V17.5M15.8333 10C15.8333 9.23396 15.6824 8.47541 15.3893 7.76768C15.0961 7.05995 14.6665 6.41689 14.1248 5.87521C13.5831 5.33354 12.9401 4.90385 12.2323 4.6107C11.5246 4.31755 10.766 4.16667 10 4.16667M15.8333 10H17.5M10 4.16667C8.4529 4.16667 6.96917 4.78125 5.87521 5.87521C4.78125 6.96917 4.16667 8.4529 4.16667 10M10 4.16667V2.5M4.16667 10H2.5" stroke="black" stroke-width="0.875" stroke-linecap="round" stroke-linejoin="round"/>
</svg>
