<svg width="18" height="18" viewBox="0 0 18 18" fill="none" xmlns="http://www.w3.org/2000/svg">
<path d="M7.7727 2.25C6.68041 2.25 5.61266 2.5739 4.70445 3.18074C3.79625 3.78758 3.08839 4.65011 2.67039 5.65925C2.25239 6.66839 2.14303 7.77882 2.35612 8.85012C2.56921 9.92142 3.0952 10.9055 3.86756 11.6778C4.63993 12.4502 5.62398 12.9762 6.69527 13.1893C7.76657 13.4024 8.877 13.293 9.88614 12.875C10.8953 12.457 11.7578 11.7491 12.3647 10.8409C12.9715 9.93274 13.2954 8.86498 13.2954 7.77269C13.2953 6.30801 12.7134 4.90335 11.6777 3.86766C10.642 2.83198 9.23738 2.25009 7.7727 2.25Z" stroke="black" stroke-width="1.25" stroke-miterlimit="10"/>
<path d="M11.8931 11.8931L15.7501 15.7501" stroke="black" stroke-width="1.25" stroke-miterlimit="10" stroke-linecap="round"/>
</svg>
