<svg width="26" height="26" viewBox="0 0 26 26" fill="none" xmlns="http://www.w3.org/2000/svg">
<g id="Icon/search">
<path id="Vector" d="M11.2272 3.25C9.64948 3.25 8.10717 3.71786 6.79532 4.59441C5.48347 5.47095 4.46101 6.71683 3.85723 8.17447C3.25346 9.63212 3.09548 11.2361 3.40328 12.7835C3.71109 14.3309 4.47084 15.7523 5.58648 16.868C6.70211 17.9836 8.12352 18.7434 9.67095 19.0512C11.2184 19.359 12.8223 19.201 14.28 18.5972C15.7376 17.9934 16.9835 16.971 17.8601 15.6591C18.7366 14.3473 19.2045 12.805 19.2045 11.2272C19.2043 9.11158 18.3638 7.08262 16.8678 5.58662C15.3718 4.09063 13.3429 3.25013 11.2272 3.25Z" stroke="black" stroke-width="1.25" stroke-miterlimit="10"/>
<path id="Vector_2" d="M17.1788 17.1788L22.75 22.75" stroke="black" stroke-width="1.25" stroke-miterlimit="10" stroke-linecap="round"/>
</g>
</svg>
