<svg width="14" height="15" viewBox="0 0 14 15" fill="none" xmlns="http://www.w3.org/2000/svg">
<g id="Icon/heart">
<path id="Vector" d="M7.05817 11.3208L6.99984 11.3792L6.93567 11.3208C4.16484 8.80667 2.33317 7.14417 2.33317 5.45833C2.33317 4.29167 3.20817 3.41667 4.37484 3.41667C5.27317 3.41667 6.14817 4 6.45734 4.79333H7.54234C7.8515 4 8.7265 3.41667 9.62484 3.41667C10.7915 3.41667 11.6665 4.29167 11.6665 5.45833C11.6665 7.14417 9.83484 8.80667 7.05817 11.3208ZM9.62484 2.25C8.60984 2.25 7.63567 2.7225 6.99984 3.46333C6.364 2.7225 5.38984 2.25 4.37484 2.25C2.57817 2.25 1.1665 3.65583 1.1665 5.45833C1.1665 7.6575 3.14984 9.46 6.154 12.1842L6.99984 12.9542L7.84567 12.1842C10.8498 9.46 12.8332 7.6575 12.8332 5.45833C12.8332 3.65583 11.4215 2.25 9.62484 2.25Z" fill="black"/>
</g>
</svg>
