<svg width="85" height="31" viewBox="0 0 85 31" fill="none" xmlns="http://www.w3.org/2000/svg">
<g clip-path="url(#clip0_238_2717)">
<path d="M0 0H17.2752L19.9727 5.10736H6.13177V12.2079H16.9038L18.4382 14.7823L16.9038 17.3568H6.13177V25.5783H19.9727L17.7309 30.7273H0V0Z" fill="#699AFE"/>
<path d="M36.1447 30.7272C34.3247 30.7272 32.7054 30.4691 31.2867 29.9529C29.8682 29.4097 28.6503 28.5674 27.6332 27.4264C26.6429 26.2853 25.8799 24.8181 25.3447 23.025C24.8361 21.2319 24.5818 19.0856 24.5818 16.5862V-3.05176e-05L30.5239 2.23377V17.116C30.5239 18.6917 30.6443 20.0229 30.8852 21.1098C31.1529 22.1692 31.5276 23.025 32.0094 23.677C32.4912 24.3291 33.0801 24.8046 33.7759 25.1034C34.4719 25.3752 35.2614 25.511 36.1447 25.511C37.0279 25.511 37.8176 25.3752 38.5134 25.1034C39.2361 24.8046 39.8518 24.3291 40.3603 23.677C40.8688 23.025 41.2571 22.1692 41.5247 21.1098C41.7923 20.0229 41.9262 18.6917 41.9262 17.116V2.23377L47.6273 -3.05176e-05V16.5862C47.6273 19.0856 47.373 21.2319 46.8645 23.025C46.356 24.8181 45.6065 26.2853 44.6162 27.4264C43.6258 28.5674 42.4213 29.4097 41.0028 29.9529C39.5841 30.4691 37.9648 30.7272 36.1447 30.7272Z" fill="#373E6A"/>
<path d="M50.7 -3.05176e-05L56.8455 1.53787V29.1893L50.7 30.7272V-3.05176e-05Z" fill="#373E6A"/>
<path d="M59.9182 1.53787L64.0365 -3.05176e-05H68.6882C71.1362 -3.05176e-05 73.3251 0.304474 75.2547 0.913482C77.2133 1.52249 78.8694 2.46368 80.223 3.73707C81.6055 4.98277 82.6566 6.56066 83.3767 8.47073C84.1256 10.3808 84.5 12.6369 84.5 15.239C84.5 17.8135 84.1256 20.0696 83.3767 22.0073C82.6566 23.9451 81.6199 25.5644 80.2662 26.8656C78.9414 28.1389 77.3285 29.1078 75.4276 29.7722C73.5266 30.4089 71.3954 30.7272 69.0337 30.7272H64.4759L59.9182 29.1893V1.53787ZM68.2993 25.786C69.797 25.786 71.1362 25.5923 72.3171 25.2046C73.5266 24.7893 74.5491 24.1665 75.3844 23.3361C76.2196 22.4779 76.8532 21.3845 77.2852 20.0558C77.7461 18.727 77.9766 17.1214 77.9766 15.239C77.9766 13.3566 77.7461 11.7649 77.2852 10.4639C76.8532 9.13511 76.2196 8.06933 75.3844 7.26655C74.5491 6.43609 73.5266 5.84092 72.3171 5.48105C71.1362 5.09349 69.797 4.89972 68.2993 4.89972H66.312V25.786H68.2993Z" fill="#373E6A"/>
</g>
<defs>
<clipPath id="clip0_238_2717">
<rect width="84.5" height="30.7273" fill="white"/>
</clipPath>
</defs>
</svg>
