<svg width="20" height="20" viewBox="0 0 20 20" fill="none" xmlns="http://www.w3.org/2000/svg">
<path d="M5.18748 4.0092C5.03031 3.8574 4.81981 3.7734 4.60131 3.7753C4.38281 3.7772 4.1738 3.86484 4.0193 4.01935C3.86479 4.17385 3.77715 4.38286 3.77525 4.60136C3.77335 4.81986 3.85735 5.03036 4.00915 5.18753L8.82165 10L4.00831 14.8125C3.92872 14.8894 3.86524 14.9814 3.82156 15.083C3.77789 15.1847 3.7549 15.294 3.75394 15.4047C3.75298 15.5153 3.77406 15.6251 3.81596 15.7275C3.85786 15.8299 3.91974 15.9229 3.99798 16.0012C4.07623 16.0794 4.16927 16.1413 4.27168 16.1832C4.3741 16.2251 4.48383 16.2462 4.59448 16.2452C4.70513 16.2443 4.81448 16.2213 4.91615 16.1776C5.01782 16.1339 5.10977 16.0705 5.18665 15.9909L9.99998 11.1784L14.8125 15.9909C14.9696 16.1427 15.1802 16.2267 15.3986 16.2248C15.6171 16.2229 15.8262 16.1352 15.9807 15.9807C16.1352 15.8262 16.2228 15.6172 16.2247 15.3987C16.2266 15.1802 16.1426 14.9697 15.9908 14.8125L11.1783 10L15.9908 5.18753C16.1426 5.03036 16.2266 4.81986 16.2247 4.60136C16.2228 4.38286 16.1352 4.17385 15.9807 4.01935C15.8262 3.86484 15.6171 3.7772 15.3986 3.7753C15.1802 3.7734 14.9696 3.8574 14.8125 4.0092L9.99998 8.8217L5.18748 4.0092Z" fill="black"/>
</svg>
