<svg width="20" height="20" viewBox="0 0 20 20" fill="none" xmlns="http://www.w3.org/2000/svg">
<path d="M15.4688 8.75C15.4688 8.87432 15.4194 8.99355 15.3315 9.08146C15.2435 9.16936 15.1243 9.21875 15 9.21875H11.875C11.7507 9.21875 11.6315 9.16936 11.5435 9.08146C11.4556 8.99355 11.4062 8.87432 11.4062 8.75C11.4062 8.62568 11.4556 8.50645 11.5435 8.41854C11.6315 8.33064 11.7507 8.28125 11.875 8.28125H15C15.1243 8.28125 15.2435 8.33064 15.3315 8.41854C15.4194 8.50645 15.4688 8.62568 15.4688 8.75ZM15 10.7812H11.875C11.7507 10.7812 11.6315 10.8306 11.5435 10.9185C11.4556 11.0065 11.4062 11.1257 11.4062 11.25C11.4062 11.3743 11.4556 11.4935 11.5435 11.5815C11.6315 11.6694 11.7507 11.7188 11.875 11.7188H15C15.1243 11.7188 15.2435 11.6694 15.3315 11.5815C15.4194 11.4935 15.4688 11.3743 15.4688 11.25C15.4688 11.1257 15.4194 11.0065 15.3315 10.9185C15.2435 10.8306 15.1243 10.7812 15 10.7812ZM17.9688 4.375V15.625C17.9688 15.9151 17.8535 16.1933 17.6484 16.3984C17.4433 16.6035 17.1651 16.7188 16.875 16.7188H3.125C2.83492 16.7188 2.55672 16.6035 2.3516 16.3984C2.14648 16.1933 2.03125 15.9151 2.03125 15.625V4.375C2.03125 4.08492 2.14648 3.80672 2.3516 3.6016C2.55672 3.39648 2.83492 3.28125 3.125 3.28125H16.875C17.1651 3.28125 17.4433 3.39648 17.6484 3.6016C17.8535 3.80672 17.9688 4.08492 17.9688 4.375ZM17.0312 4.375C17.0312 4.33356 17.0148 4.29382 16.9855 4.26451C16.9562 4.23521 16.9164 4.21875 16.875 4.21875H3.125C3.08356 4.21875 3.04382 4.23521 3.01451 4.26451C2.98521 4.29382 2.96875 4.33356 2.96875 4.375V15.625C2.96875 15.6664 2.98521 15.7062 3.01451 15.7355C3.04382 15.7648 3.08356 15.7812 3.125 15.7812H16.875C16.9164 15.7812 16.9562 15.7648 16.9855 15.7355C17.0148 15.7062 17.0312 15.6664 17.0312 15.625V4.375ZM10.4539 13.0086C10.485 13.129 10.467 13.2568 10.4038 13.3639C10.3407 13.471 10.2376 13.5486 10.1172 13.5797C9.9968 13.6108 9.869 13.5928 9.7619 13.5296C9.6548 13.4665 9.57717 13.3634 9.54609 13.243C9.32344 12.3734 8.44375 11.7188 7.5 11.7188C6.55625 11.7188 5.67734 12.3734 5.45391 13.2422C5.42283 13.3626 5.3452 13.4657 5.2381 13.5288C5.131 13.592 5.0032 13.61 4.88281 13.5789C4.76243 13.5478 4.65932 13.4702 4.59618 13.3631C4.53303 13.256 4.51501 13.1282 4.54609 13.0078C4.6511 12.6193 4.834 12.2563 5.08367 11.9406C5.33333 11.625 5.64456 11.3635 5.99844 11.1719C5.6288 10.8633 5.36317 10.4484 5.23767 9.98356C5.11216 9.51871 5.13286 9.02649 5.29697 8.57382C5.46107 8.12116 5.76061 7.73002 6.15485 7.45359C6.54909 7.17717 7.0189 7.02887 7.50039 7.02887C7.98188 7.02887 8.45169 7.17717 8.84593 7.45359C9.24017 7.73002 9.53971 8.12116 9.70381 8.57382C9.86792 9.02649 9.88862 9.51871 9.76312 9.98356C9.63761 10.4484 9.37198 10.8633 9.00234 11.1719C9.35616 11.3637 9.66728 11.6254 9.91682 11.9411C10.1663 12.2569 10.3491 12.62 10.4539 13.0086ZM7.5 10.7812C7.77813 10.7812 8.05001 10.6988 8.28127 10.5443C8.51253 10.3897 8.69277 10.1701 8.79921 9.91315C8.90564 9.65619 8.93349 9.37344 8.87923 9.10065C8.82497 8.82787 8.69104 8.5773 8.49437 8.38063C8.2977 8.18396 8.04713 8.05003 7.77435 7.99577C7.50156 7.94151 7.21881 7.96936 6.96185 8.07579C6.70489 8.18223 6.48527 8.36247 6.33075 8.59373C6.17623 8.82499 6.09375 9.09687 6.09375 9.375C6.09375 9.74796 6.24191 10.1056 6.50563 10.3694C6.76935 10.6331 7.12704 10.7812 7.5 10.7812Z" fill="#A7A7A7"/>
</svg>
