<svg width="20" height="20" viewBox="0 0 20 20" fill="none" xmlns="http://www.w3.org/2000/svg">
<path d="M14.1923 10.4423L7.94229 16.6923C7.88422 16.7504 7.81528 16.7964 7.73941 16.8278C7.66354 16.8593 7.58223 16.8755 7.5001 16.8755C7.41798 16.8755 7.33666 16.8593 7.26079 16.8278C7.18492 16.7964 7.11598 16.7504 7.05792 16.6923C6.99985 16.6342 6.95378 16.5653 6.92236 16.4894C6.89093 16.4135 6.87476 16.3322 6.87476 16.2501C6.87476 16.168 6.89093 16.0867 6.92236 16.0108C6.95378 15.9349 6.99985 15.866 7.05792 15.8079L12.8665 10.0001L7.05792 4.19229C6.94064 4.07502 6.87476 3.91596 6.87476 3.7501C6.87476 3.58425 6.94064 3.42519 7.05792 3.30792C7.17519 3.19064 7.33425 3.12476 7.5001 3.12476C7.66596 3.12476 7.82502 3.19064 7.94229 3.30792L14.1923 9.55792C14.2504 9.61596 14.2965 9.68489 14.328 9.76077C14.3594 9.83664 14.3756 9.91797 14.3756 10.0001C14.3756 10.0822 14.3594 10.1636 14.328 10.2394C14.2965 10.3153 14.2504 10.3842 14.1923 10.4423Z" fill="black"/>
</svg>
