<svg width="20" height="20" viewBox="0 0 20 20" fill="none" xmlns="http://www.w3.org/2000/svg">
<path d="M10.2498 6.07496C10.4165 5.92496 10.6165 5.83329 10.8332 5.83329C11.0582 5.83329 11.2498 5.92496 11.4248 6.07496C11.5832 6.24996 11.6665 6.44996 11.6665 6.66663C11.6665 6.89163 11.5832 7.08329 11.4248 7.25829C11.2498 7.41663 11.0582 7.49996 10.8332 7.49996C10.6165 7.49996 10.4165 7.41663 10.2498 7.25829C10.0915 7.08329 9.99984 6.89163 9.99984 6.66663C9.99984 6.44996 10.0915 6.24996 10.2498 6.07496ZM8.1665 9.97496C8.1665 9.97496 9.97484 8.54163 10.6332 8.48329C11.2498 8.43329 11.1248 9.14163 11.0665 9.50829L11.0582 9.55829C10.9415 9.99996 10.7998 10.5333 10.6582 11.0416C10.3415 12.2 10.0332 13.3333 10.1082 13.5416C10.1915 13.825 10.7082 13.4666 11.0832 13.2166C11.1332 13.1833 11.1748 13.15 11.2165 13.125C11.2165 13.125 11.2832 13.0583 11.3498 13.15C11.3665 13.175 11.3832 13.2 11.3998 13.2166C11.4748 13.3333 11.5165 13.375 11.4165 13.4416L11.3832 13.4583C11.1998 13.5833 10.4165 14.1333 10.0998 14.3333C9.75817 14.5583 8.44984 15.3083 8.64984 13.85C8.82484 12.825 9.05817 11.9416 9.2415 11.25C9.58317 9.99996 9.73317 9.43329 8.9665 9.92496C8.65817 10.1083 8.47484 10.225 8.3665 10.3C8.27484 10.3666 8.2665 10.3666 8.20817 10.2583L8.18317 10.2083L8.1415 10.1416C8.08317 10.0583 8.08317 10.05 8.1665 9.97496ZM18.3332 9.99996C18.3332 14.5833 14.5832 18.3333 9.99984 18.3333C5.4165 18.3333 1.6665 14.5833 1.6665 9.99996C1.6665 5.41663 5.4165 1.66663 9.99984 1.66663C14.5832 1.66663 18.3332 5.41663 18.3332 9.99996ZM16.6665 9.99996C16.6665 6.31663 13.6832 3.33329 9.99984 3.33329C6.3165 3.33329 3.33317 6.31663 3.33317 9.99996C3.33317 13.6833 6.3165 16.6666 9.99984 16.6666C13.6832 16.6666 16.6665 13.6833 16.6665 9.99996Z" fill="black"/>
</svg>
