<svg width="20" height="20" viewBox="0 0 20 20" fill="none" xmlns="http://www.w3.org/2000/svg">
<path d="M10.0002 6.66671C10.9168 6.66671 11.6668 5.91671 11.6668 5.00004C11.6668 4.08337 10.9168 3.33337 10.0002 3.33337C9.0835 3.33337 8.3335 4.08337 8.3335 5.00004C8.3335 5.91671 9.0835 6.66671 10.0002 6.66671ZM10.0002 8.33337C9.0835 8.33337 8.3335 9.08337 8.3335 10C8.3335 10.9167 9.0835 11.6667 10.0002 11.6667C10.9168 11.6667 11.6668 10.9167 11.6668 10C11.6668 9.08337 10.9168 8.33337 10.0002 8.33337ZM10.0002 13.3334C9.0835 13.3334 8.3335 14.0834 8.3335 15C8.3335 15.9167 9.0835 16.6667 10.0002 16.6667C10.9168 16.6667 11.6668 15.9167 11.6668 15C11.6668 14.0834 10.9168 13.3334 10.0002 13.3334Z" fill="black"/>
</svg>
