<svg width="20" height="20" viewBox="0 0 20 20" fill="none" xmlns="http://www.w3.org/2000/svg">
<path d="M10.0002 14.1667C10.4422 14.1667 10.8661 13.9911 11.1787 13.6786C11.4912 13.366 11.6668 12.9421 11.6668 12.5C11.6668 12.058 11.4912 11.6341 11.1787 11.3215C10.8661 11.009 10.4422 10.8334 10.0002 10.8334C9.55814 10.8334 9.13421 11.009 8.82165 11.3215C8.50909 11.6341 8.3335 12.058 8.3335 12.5C8.3335 12.9421 8.50909 13.366 8.82165 13.6786C9.13421 13.9911 9.55814 14.1667 10.0002 14.1667ZM15.0002 6.66671C15.4422 6.66671 15.8661 6.8423 16.1787 7.15486C16.4912 7.46742 16.6668 7.89135 16.6668 8.33337V16.6667C16.6668 17.1087 16.4912 17.5327 16.1787 17.8452C15.8661 18.1578 15.4422 18.3334 15.0002 18.3334H5.00016C4.55814 18.3334 4.13421 18.1578 3.82165 17.8452C3.50909 17.5327 3.3335 17.1087 3.3335 16.6667V8.33337C3.3335 7.89135 3.50909 7.46742 3.82165 7.15486C4.13421 6.8423 4.55814 6.66671 5.00016 6.66671H5.8335V5.00004C5.8335 3.89497 6.27248 2.83516 7.05388 2.05376C7.83529 1.27236 8.89509 0.833374 10.0002 0.833374C10.5473 0.833374 11.0892 0.941148 11.5947 1.15054C12.1002 1.35994 12.5595 1.66685 12.9464 2.05376C13.3334 2.44067 13.6403 2.9 13.8497 3.40553C14.0591 3.91105 14.1668 4.45287 14.1668 5.00004V6.66671H15.0002ZM10.0002 2.50004C9.33712 2.50004 8.70124 2.76343 8.2324 3.23227C7.76355 3.70111 7.50016 4.337 7.50016 5.00004V6.66671H12.5002V5.00004C12.5002 4.337 12.2368 3.70111 11.7679 3.23227C11.2991 2.76343 10.6632 2.50004 10.0002 2.50004Z" fill="#5A85EE"/>
</svg>
