<svg width="20" height="20" viewBox="0 0 20 20" fill="none" xmlns="http://www.w3.org/2000/svg">
<path d="M2.91677 6.66661C2.91693 5.87654 3.12133 5.09992 3.51012 4.41213C3.89891 3.72434 4.45889 3.14873 5.13572 2.74116C5.81255 2.33359 6.58324 2.1079 7.37301 2.08599C8.16278 2.06408 8.9448 2.2467 9.64318 2.61612C10.3416 2.98554 10.9326 3.52923 11.3589 4.1944C11.7852 4.85958 12.0324 5.62367 12.0763 6.41252C12.1203 7.20136 11.9596 7.98818 11.6098 8.69661C11.2601 9.40505 10.7331 10.011 10.0801 10.4558C11.4864 10.9716 12.7061 11.8964 13.5823 13.1112C14.4585 14.326 14.9511 15.7753 14.9968 17.2724C14.9948 17.4339 14.9306 17.5883 14.8175 17.7035C14.7044 17.8186 14.5511 17.8856 14.3897 17.8905C14.2284 17.8953 14.0714 17.8376 13.9516 17.7294C13.8318 17.6213 13.7584 17.471 13.7468 17.3099C13.6971 15.6862 13.0172 14.1455 11.8511 13.0144C10.6849 11.8834 9.12423 11.2509 7.49969 11.2509C5.87514 11.2509 4.31443 11.8834 3.14829 13.0144C1.98215 14.1455 1.30223 15.6862 1.2526 17.3099C1.24426 17.4731 1.17233 17.6266 1.05224 17.7374C0.932137 17.8482 0.773418 17.9076 0.61008 17.9028C0.446743 17.898 0.291779 17.8294 0.178387 17.7117C0.0649947 17.5941 0.00219305 17.4367 0.00343608 17.2733C0.0488955 15.776 0.541442 14.3265 1.41767 13.1115C2.29391 11.8965 3.51372 10.9716 4.9201 10.4558C4.30246 10.0355 3.79701 9.47046 3.44783 8.81C3.09864 8.14954 2.91633 7.41369 2.91677 6.66661ZM7.5001 3.33327C6.61605 3.33327 5.7682 3.68446 5.14308 4.30958C4.51796 4.93471 4.16677 5.78255 4.16677 6.66661C4.16677 7.55066 4.51796 8.39851 5.14308 9.02363C5.7682 9.64875 6.61605 9.99994 7.5001 9.99994C8.38416 9.99994 9.232 9.64875 9.85713 9.02363C10.4822 8.39851 10.8334 7.55066 10.8334 6.66661C10.8334 5.78255 10.4822 4.93471 9.85713 4.30958C9.232 3.68446 8.38416 3.33327 7.5001 3.33327ZM14.4084 6.66661C14.2851 6.66661 14.1651 6.67494 14.0468 6.69161C13.9642 6.7064 13.8794 6.7044 13.7976 6.68573C13.7157 6.66706 13.6385 6.6321 13.5705 6.58293C13.5025 6.53376 13.445 6.4714 13.4016 6.39956C13.3582 6.32771 13.3298 6.24787 13.3179 6.16478C13.306 6.08169 13.311 5.99706 13.3326 5.91594C13.3541 5.83482 13.3918 5.75888 13.4433 5.69263C13.4948 5.62638 13.5592 5.57119 13.6325 5.53036C13.7058 5.48952 13.7866 5.46387 13.8701 5.45494C14.6989 5.33511 15.544 5.49427 16.2725 5.90738C17.0009 6.32048 17.5713 6.96408 17.8939 7.73688C18.2165 8.50968 18.273 9.36781 18.0545 10.1762C17.8359 10.9846 17.3548 11.6974 16.6868 12.2024C17.6688 12.6421 18.5025 13.3566 19.0875 14.2596C19.6725 15.1627 19.9836 16.2157 19.9834 17.2916C19.9834 17.4574 19.9176 17.6163 19.8004 17.7335C19.6832 17.8508 19.5242 17.9166 19.3584 17.9166C19.1927 17.9166 19.0337 17.8508 18.9165 17.7335C18.7993 17.6163 18.7334 17.4574 18.7334 17.2916C18.7333 16.3617 18.4337 15.4566 17.879 14.7103C17.3242 13.9641 16.5438 13.4163 15.6534 13.1483L15.2084 13.0149V11.6183L15.5501 11.4441C16.0566 11.1876 16.4618 10.7678 16.7004 10.2526C16.9389 9.73747 16.9969 9.15692 16.865 8.60474C16.733 8.05255 16.4188 7.56095 15.9731 7.20929C15.5274 6.85764 14.9762 6.66646 14.4084 6.66661Z" fill="black"/>
</svg>
