<svg xmlns="http://www.w3.org/2000/svg" width="14" height="14" viewBox="0 0 14 14" fill="none">
  <path d="M2.04179 4.83328C2.0419 4.31974 2.18498 3.81494 2.45713 3.36787C2.72928 2.92081 3.12127 2.54666 3.59505 2.28174C4.06883 2.01682 4.60832 1.87012 5.16115 1.85588C5.71399 1.84164 6.26141 1.96034 6.75027 2.20047C7.23914 2.44059 7.65286 2.79398 7.95129 3.22635C8.24971 3.65872 8.42271 4.15537 8.45348 4.66812C8.48426 5.18087 8.37177 5.69231 8.12693 6.15279C7.8821 6.61327 7.51323 7.00716 7.05612 7.29624C8.0405 7.6315 8.8943 8.23263 9.50766 9.02226C10.121 9.8119 10.4659 10.7539 10.4978 11.7271C10.4964 11.832 10.4515 11.9324 10.3723 12.0072C10.2931 12.0821 10.1858 12.1256 10.0729 12.1288C9.95992 12.1319 9.85003 12.0944 9.76616 12.0241C9.68228 11.9538 9.63092 11.8561 9.62279 11.7514C9.58805 10.696 9.1121 9.69456 8.2958 8.95938C7.47951 8.2242 6.38701 7.81305 5.24983 7.81305C4.11265 7.81305 3.02015 8.2242 2.20385 8.95938C1.38756 9.69456 0.911608 10.696 0.876871 11.7514C0.87103 11.8575 0.820682 11.9573 0.736614 12.0293C0.652545 12.1013 0.541441 12.1399 0.427105 12.1368C0.312769 12.1337 0.204294 12.0891 0.12492 12.0126C0.0455451 11.9361 0.00158396 11.8338 0.00245408 11.7276C0.0342757 10.7544 0.379058 9.81223 0.992421 9.02249C1.60578 8.23274 2.45965 7.63153 3.44412 7.29624C3.01177 7.02304 2.65796 6.65579 2.41353 6.22649C2.1691 5.79719 2.04148 5.31889 2.04179 4.83328ZM5.25012 2.66662C4.63128 2.66662 4.03779 2.89489 3.6002 3.30122C3.16262 3.70755 2.91679 4.25865 2.91679 4.83328C2.91679 5.40792 3.16262 5.95902 3.6002 6.36535C4.03779 6.77168 4.63128 6.99995 5.25012 6.99995C5.86896 6.99995 6.46245 6.77168 6.90004 6.36535C7.33762 5.95902 7.58345 5.40792 7.58345 4.83328C7.58345 4.25865 7.33762 3.70755 6.90004 3.30122C6.46245 2.89489 5.86896 2.66662 5.25012 2.66662ZM10.086 4.83328C9.99962 4.83328 9.91562 4.8387 9.83279 4.84953C9.77495 4.85915 9.71563 4.85785 9.65835 4.84571C9.60107 4.83358 9.54701 4.81085 9.49939 4.77889C9.45177 4.74693 9.41158 4.7064 9.3812 4.6597C9.35082 4.613 9.33088 4.5611 9.32257 4.50709C9.31426 4.45309 9.31775 4.39808 9.33284 4.34535C9.34792 4.29262 9.37428 4.24326 9.41036 4.2002C9.44643 4.15714 9.49148 4.12126 9.54281 4.09472C9.59414 4.06818 9.6507 4.0515 9.70912 4.0457C10.2893 3.96781 10.8809 4.07126 11.3908 4.33978C11.9007 4.6083 12.3 5.02664 12.5258 5.52896C12.7516 6.03128 12.7912 6.58906 12.6382 7.11453C12.4852 7.64 12.1484 8.10332 11.6808 8.43157C12.3682 8.71738 12.9518 9.18178 13.3613 9.76875C13.7708 10.3557 13.9886 11.0402 13.9885 11.7395C13.9885 11.8473 13.9424 11.9506 13.8603 12.0268C13.7783 12.103 13.667 12.1458 13.551 12.1458C13.4349 12.1458 13.3236 12.103 13.2416 12.0268C13.1595 11.9506 13.1135 11.8473 13.1135 11.7395C13.1134 11.1351 12.9037 10.5468 12.5153 10.0617C12.127 9.57663 11.5807 9.2206 10.9575 9.04636L10.646 8.9597V8.05187L10.8851 7.93866C11.2396 7.7719 11.5233 7.49907 11.6903 7.1642C11.8573 6.82934 11.8979 6.45199 11.8055 6.09307C11.7132 5.73415 11.4932 5.4146 11.1812 5.18603C10.8692 4.95745 10.4834 4.83318 10.086 4.83328Z" fill="#5A85EE"/>
</svg>