<svg width="20" height="20" viewBox="0 0 20 20" fill="none" xmlns="http://www.w3.org/2000/svg">
<path d="M10 8.33333C10.383 8.33333 10.7623 8.25789 11.1162 8.11132C11.47 7.96474 11.7916 7.7499 12.0624 7.47906C12.3332 7.20822 12.5481 6.88669 12.6946 6.53283C12.8412 6.17896 12.9167 5.79969 12.9167 5.41667C12.9167 5.03364 12.8412 4.65437 12.6946 4.30051C12.5481 3.94664 12.3332 3.62511 12.0624 3.35427C11.7916 3.08343 11.47 2.86859 11.1162 2.72202C10.7623 2.57544 10.383 2.5 10 2.5C9.22645 2.5 8.48459 2.80729 7.93761 3.35427C7.39062 3.90125 7.08333 4.64312 7.08333 5.41667C7.08333 6.19021 7.39062 6.93208 7.93761 7.47906C8.48459 8.02604 9.22645 8.33333 10 8.33333ZM2.5 17V17.5H17.5V17C17.5 15.1333 17.5 14.2 17.1367 13.4867C16.8171 12.8595 16.3072 12.3496 15.68 12.03C14.9667 11.6667 14.0333 11.6667 12.1667 11.6667H7.83333C5.96667 11.6667 5.03333 11.6667 4.32 12.03C3.69282 12.3496 3.18291 12.8595 2.86333 13.4867C2.5 14.2 2.5 15.1333 2.5 17Z" stroke="black" stroke-width="1.16667" stroke-linecap="round" stroke-linejoin="round"/>
</svg>
